<svg width="62" height="62" viewBox="0 0 62 62" fill="none" xmlns="http://www.w3.org/2000/svg">
<g filter="url(#filter0_d_2024_5569)">
<path d="M15 23C15 18.5817 18.5817 15 23 15H39C43.4183 15 47 18.5817 47 23V39C47 43.4183 43.4183 47 39 47H23C18.5817 47 15 43.4183 15 39V23Z" fill="url(#paint0_linear_2024_5569)" shape-rendering="crispEdges"/>
<path d="M32.75 32.9375V31.625H38V35.5625C38 36.2734 37.3711 36.875 36.6875 36.875H25.3125C24.6016 36.875 24 36.2734 24 35.5625V31.625H29.25V32.9375C29.25 33.1836 29.4414 33.375 29.6875 33.375H32.3125C32.5312 33.375 32.75 33.1836 32.75 32.9375ZM36.6875 27.25C37.3711 27.25 38 27.8789 38 28.5625V30.75H24V28.5625C24 27.8789 24.6016 27.25 25.3125 27.25H27.5V25.9375C27.5 25.2539 28.1016 24.625 28.8125 24.625H33.1875C33.8711 24.625 34.5 25.2539 34.5 25.9375V27.25H36.6875ZM32.75 27.25V26.375H29.25V27.25H32.75Z" fill="white"/>
</g>
<defs>
<filter id="filter0_d_2024_5569" x="0" y="0" width="62" height="62" filterUnits="userSpaceOnUse" color-interpolation-filters="sRGB">
<feFlood flood-opacity="0" result="BackgroundImageFix"/>
<feColorMatrix in="SourceAlpha" type="matrix" values="0 0 0 0 0 0 0 0 0 0 0 0 0 0 0 0 0 0 127 0" result="hardAlpha"/>
<feOffset/>
<feGaussianBlur stdDeviation="7.5"/>
<feComposite in2="hardAlpha" operator="out"/>
<feColorMatrix type="matrix" values="0 0 0 0 0.231373 0 0 0 0 0.509804 0 0 0 0 0.964706 0 0 0 0.5 0"/>
<feBlend mode="normal" in2="BackgroundImageFix" result="effect1_dropShadow_2024_5569"/>
<feBlend mode="normal" in="SourceGraphic" in2="effect1_dropShadow_2024_5569" result="shape"/>
</filter>
<linearGradient id="paint0_linear_2024_5569" x1="15" y1="15" x2="47" y2="47" gradientUnits="userSpaceOnUse">
<stop stop-color="#BCC5F1"/>
<stop offset="1" stop-color="#576DDB"/>
</linearGradient>
</defs>
</svg>
