<svg width="60" height="60" viewBox="0 0 60 60" fill="none" xmlns="http://www.w3.org/2000/svg">
  <!-- Document shape -->
  <path d="M8 6C8 3.79086 9.79086 2 12 2H28L40 14V46C40 48.2091 38.2091 50 36 50H12C9.79086 50 8 48.2091 8 46V6Z" fill="#D4D9F5" stroke="#B0B8E8" stroke-width="1.5"/>
  <path d="M28 2L40 14H32C29.7909 14 28 12.2091 28 10V2Z" fill="#B0B8E8"/>
  <!-- Lines on document -->
  <line x1="14" y1="22" x2="34" y2="22" stroke="#B0B8E8" stroke-width="2" stroke-linecap="round"/>
  <line x1="14" y1="28" x2="30" y2="28" stroke="#B0B8E8" stroke-width="2" stroke-linecap="round"/>
  <line x1="14" y1="34" x2="26" y2="34" stroke="#B0B8E8" stroke-width="2" stroke-linecap="round"/>
  <!-- Upload badge circle -->
  <circle cx="42" cy="42" r="16" fill="#5468D6"/>
  <!-- Upload arrow -->
  <path d="M42 50V35" stroke="white" stroke-width="2.5" stroke-linecap="round"/>
  <path d="M36 40L42 34L48 40" stroke="white" stroke-width="2.5" stroke-linecap="round" stroke-linejoin="round"/>
</svg>
